# xmcd CD database file
#
# Track frame offsets:
#	150
#	5587
#	26137
#	50557
#	67442
#	81562
#	106955
#	129650
#	149212
#	173105
#
# Disc length: 2550 seconds
#
# Revision: 0
# Processed by: cddbd v1.5PL3 Copyright (c) Steve Scherf et al.
# Submitted via: CDex 1.50beta9
#
DISCID=9e09f40a
DTITLE=中山忍 - 箱入り娘〜このままじゃいられないわ〜
DYEAR=1900
DGENRE=Pop
TTITLE0=箱入り娘の嘆き〜Repise〜
TTITLE1=涙のピチカート
TTITLE2=千年の難破船
TTITLE3=ペパーミント・レインボー
TTITLE4=ラメントNo.5
TTITLE5=ホタル
TTITLE6=僕がむかえにいくよ
TTITLE7=記憶証明
TTITLE8=銀の蓋
TTITLE9=箱入り娘の嘆き
EXTD=
EXTT0=
EXTT1=
EXTT2=
EXTT3=
EXTT4=
EXTT5=
EXTT6=
EXTT7=
EXTT8=
EXTT9=
PLAYORDER=
